<?xml version="1.0" encoding="UTF-8" standalone="no"?>
<!DOCTYPE svg PUBLIC "-//W3C//DTD SVG 1.1//EN"
 "http://www.w3.org/Graphics/SVG/1.1/DTD/svg11.dtd">
<!-- Generated by graphviz version 7.1.0 (20230121.1956)
 -->
<!-- Title: dependency&#45;cruiser output Pages: 1 -->
<svg width="618pt" height="354pt"
 viewBox="0.00 0.00 618.00 354.00" xmlns="http://www.w3.org/2000/svg" xmlns:xlink="http://www.w3.org/1999/xlink">
<g id="graph0" class="graph" transform="scale(1 1) rotate(0) translate(4 350)">
<title>dependency&#45;cruiser output</title>
<polygon fill="white" stroke="none" points="-4,4 -4,-350 614,-350 614,4 -4,4"/>
<g id="clust1" class="cluster">
<title>cluster_app</title>
<path fill="#ffffff" stroke="black" stroke-width="2" d="M20,-26C20,-26 590,-26 590,-26 596,-26 602,-32 602,-38 602,-38 602,-326 602,-326 602,-332 596,-338 590,-338 590,-338 20,-338 20,-338 14,-338 8,-332 8,-326 8,-326 8,-38 8,-38 8,-32 14,-26 20,-26"/>
<text text-anchor="middle" x="305" y="-326.8" font-family="Helvetica,sans-Serif" font-weight="bold" font-size="9.00">app</text>
</g>
<g id="clust2" class="cluster">
<title>cluster_app/class</title>
<path fill="#ffffff" stroke="black" stroke-width="2" d="M317,-104C317,-104 448,-104 448,-104 454,-104 460,-110 460,-116 460,-116 460,-144 460,-144 460,-150 454,-156 448,-156 448,-156 317,-156 317,-156 311,-156 305,-150 305,-144 305,-144 305,-116 305,-116 305,-110 311,-104 317,-104"/>
<text text-anchor="middle" x="382.5" y="-144.8" font-family="Helvetica,sans-Serif" font-weight="bold" font-size="9.00">class</text>
</g>
<g id="clust3" class="cluster">
<title>cluster_app/graphql</title>
<path fill="#ffffff" stroke="black" stroke-width="2" d="M157,-63C157,-63 285,-63 285,-63 291,-63 297,-69 297,-75 297,-75 297,-133 297,-133 297,-139 291,-145 285,-145 285,-145 157,-145 157,-145 151,-145 145,-139 145,-133 145,-133 145,-75 145,-75 145,-69 151,-63 157,-63"/>
<text text-anchor="middle" x="221" y="-133.8" font-family="Helvetica,sans-Serif" font-weight="bold" font-size="9.00">graphql</text>
</g>
<g id="clust4" class="cluster">
<title>cluster_app/professor</title>
<path fill="#ffffff" stroke="black" stroke-width="2" d="M397,-44C397,-44 520,-44 520,-44 526,-44 532,-50 532,-56 532,-56 532,-84 532,-84 532,-90 526,-96 520,-96 520,-96 397,-96 397,-96 391,-96 385,-90 385,-84 385,-84 385,-56 385,-56 385,-50 391,-44 397,-44"/>
<text text-anchor="middle" x="458.5" y="-84.8" font-family="Helvetica,sans-Serif" font-weight="bold" font-size="9.00">professor</text>
</g>
<g id="clust5" class="cluster">
<title>cluster_app/school</title>
<path fill="#ffffff" stroke="black" stroke-width="2" d="M317,-260C317,-260 448,-260 448,-260 454,-260 460,-266 460,-272 460,-272 460,-300 460,-300 460,-306 454,-312 448,-312 448,-312 317,-312 317,-312 311,-312 305,-306 305,-300 305,-300 305,-272 305,-272 305,-266 311,-260 317,-260"/>
<text text-anchor="middle" x="382.5" y="-300.8" font-family="Helvetica,sans-Serif" font-weight="bold" font-size="9.00">school</text>
</g>
<g id="clust6" class="cluster">
<title>cluster_app/seeds</title>
<path fill="#ffffff" stroke="black" stroke-width="2" d="M322,-200C322,-200 448,-200 448,-200 454,-200 460,-206 460,-212 460,-212 460,-240 460,-240 460,-246 454,-252 448,-252 448,-252 322,-252 322,-252 316,-252 310,-246 310,-240 310,-240 310,-212 310,-212 310,-206 316,-200 322,-200"/>
<text text-anchor="middle" x="385" y="-240.8" font-family="Helvetica,sans-Serif" font-weight="bold" font-size="9.00">seeds</text>
</g>
<!-- app/class/controller.js -->
<g id="node1" class="node">
<title>app/class/controller.js</title>
<g id="a_node1"><a xlink:href="app/class/controller.js" xlink:title="controller.js">
<path fill="#ffffcc" stroke="black" d="M371,-130C371,-130 319,-130 319,-130 316,-130 313,-127 313,-124 313,-124 313,-118 313,-118 313,-115 316,-112 319,-112 319,-112 371,-112 371,-112 374,-112 377,-115 377,-118 377,-118 377,-124 377,-124 377,-127 374,-130 371,-130"/>
<text text-anchor="start" x="321" y="-118.8" font-family="Helvetica,sans-Serif" font-size="9.00">controller.js</text>
</a>
</g>
</g>
<!-- app/class/index.js -->
<g id="node2" class="node">
<title>app/class/index.js</title>
<g id="a_node2"><a xlink:href="app/class/index.js" xlink:title="index.js">
<path fill="#ffffcc" stroke="black" d="M446,-130C446,-130 404,-130 404,-130 401,-130 398,-127 398,-124 398,-124 398,-118 398,-118 398,-115 401,-112 404,-112 404,-112 446,-112 446,-112 449,-112 452,-115 452,-118 452,-118 452,-124 452,-124 452,-127 449,-130 446,-130"/>
<text text-anchor="start" x="409" y="-118.8" font-family="Helvetica,sans-Serif" font-size="9.00">index.js</text>
</a>
</g>
</g>
<!-- app/class/controller.js&#45;&gt;app/class/index.js -->
<g id="edge1" class="edge">
<title>app/class/controller.js&#45;&gt;app/class/index.js</title>
<path fill="none" stroke="#000000" stroke-width="2" stroke-opacity="0.200000" d="M377.28,-121C381.09,-121 385.01,-121 388.87,-121"/>
<polygon fill="#000000" fill-opacity="0.200000" stroke="#000000" stroke-width="2" stroke-opacity="0.200000" points="388.7,-123.1 394.7,-121 388.7,-118.9 388.7,-123.1"/>
</g>
<!-- app/config.js -->
<g id="node3" class="node">
<title>app/config.js</title>
<g id="a_node3"><a xlink:href="app/config.js" xlink:title="config.js">
<path fill="#ffffcc" stroke="black" d="M588,-130C588,-130 546,-130 546,-130 543,-130 540,-127 540,-124 540,-124 540,-118 540,-118 540,-115 543,-112 546,-112 546,-112 588,-112 588,-112 591,-112 594,-115 594,-118 594,-118 594,-124 594,-124 594,-127 591,-130 588,-130"/>
<text text-anchor="start" x="550" y="-118.8" font-family="Helvetica,sans-Serif" font-size="9.00">config.js</text>
</a>
</g>
</g>
<!-- app/class/index.js&#45;&gt;app/config.js -->
<g id="edge2" class="edge">
<title>app/class/index.js&#45;&gt;app/config.js</title>
<path fill="none" stroke="#000000" stroke-width="2" stroke-opacity="0.200000" d="M452.33,-121C474.53,-121 506.47,-121 530.85,-121"/>
<polygon fill="#000000" fill-opacity="0.200000" stroke="#000000" stroke-width="2" stroke-opacity="0.200000" points="530.76,-123.1 536.76,-121 530.76,-118.9 530.76,-123.1"/>
</g>
<!-- app/professor/index.js -->
<g id="node4" class="node">
<title>app/professor/index.js</title>
<g id="a_node4"><a xlink:href="app/professor/index.js" xlink:title="index.js">
<path fill="#ffffcc" stroke="black" d="M518,-70C518,-70 476,-70 476,-70 473,-70 470,-67 470,-64 470,-64 470,-58 470,-58 470,-55 473,-52 476,-52 476,-52 518,-52 518,-52 521,-52 524,-55 524,-58 524,-58 524,-64 524,-64 524,-67 521,-70 518,-70"/>
<text text-anchor="start" x="481" y="-58.8" font-family="Helvetica,sans-Serif" font-size="9.00">index.js</text>
</a>
</g>
</g>
<!-- app/class/index.js&#45;&gt;app/professor/index.js -->
<g id="edge3" class="edge">
<title>app/class/index.js&#45;&gt;app/professor/index.js</title>
<path fill="none" stroke="#000000" stroke-width="2" stroke-opacity="0.200000" d="M444.92,-111.63C450.34,-108.24 455.89,-103.99 460,-99 466.06,-91.64 463.67,-85.73 468.63,-77.32"/>
<polygon fill="#000000" fill-opacity="0.200000" stroke="#000000" stroke-width="2" stroke-opacity="0.200000" points="470.19,-78.73 472.25,-72.72 466.89,-76.13 470.19,-78.73"/>
</g>
<!-- app/professor/index.js&#45;&gt;app/config.js -->
<g id="edge13" class="edge">
<title>app/professor/index.js&#45;&gt;app/config.js</title>
<path fill="none" stroke="#000000" stroke-width="2" stroke-opacity="0.200000" d="M524.45,-69.32C527.12,-70.68 529.69,-72.23 532,-74 542.48,-82.05 551.15,-94.2 557.12,-104.13"/>
<polygon fill="#000000" fill-opacity="0.200000" stroke="#000000" stroke-width="2" stroke-opacity="0.200000" points="555.19,-104.99 559.97,-109.18 558.84,-102.92 555.19,-104.99"/>
</g>
<!-- app/conn.js -->
<g id="node5" class="node">
<title>app/conn.js</title>
<g id="a_node5"><a xlink:href="app/conn.js" xlink:title="conn.js">
<path fill="#ffffcc" stroke="black" d="M446,-182C446,-182 404,-182 404,-182 401,-182 398,-179 398,-176 398,-176 398,-170 398,-170 398,-167 401,-164 404,-164 404,-164 446,-164 446,-164 449,-164 452,-167 452,-170 452,-170 452,-176 452,-176 452,-179 449,-182 446,-182"/>
<text text-anchor="start" x="410" y="-170.8" font-family="Helvetica,sans-Serif" font-size="9.00">conn.js</text>
</a>
</g>
</g>
<!-- app/conn.js&#45;&gt;app/config.js -->
<g id="edge4" class="edge">
<title>app/conn.js&#45;&gt;app/config.js</title>
<path fill="none" stroke="#000000" stroke-width="2" stroke-opacity="0.200000" d="M451.35,-163.58C474.05,-155.15 507.49,-142.73 532.41,-133.48"/>
<polygon fill="#000000" fill-opacity="0.200000" stroke="#000000" stroke-width="2" stroke-opacity="0.200000" points="533.1,-135.46 538,-131.4 531.64,-131.52 533.1,-135.46"/>
</g>
<!-- app/graphql/index.js -->
<g id="node6" class="node">
<title>app/graphql/index.js</title>
<g id="a_node6"><a xlink:href="app/graphql/index.js" xlink:title="index.js">
<path fill="#ffffcc" stroke="black" d="M204,-119C204,-119 162,-119 162,-119 159,-119 156,-116 156,-113 156,-113 156,-107 156,-107 156,-104 159,-101 162,-101 162,-101 204,-101 204,-101 207,-101 210,-104 210,-107 210,-107 210,-113 210,-113 210,-116 207,-119 204,-119"/>
<text text-anchor="start" x="167" y="-107.8" font-family="Helvetica,sans-Serif" font-size="9.00">index.js</text>
</a>
</g>
</g>
<!-- app/graphql/resolvers.js -->
<g id="node7" class="node">
<title>app/graphql/resolvers.js</title>
<g id="a_node7"><a xlink:href="app/graphql/resolvers.js" xlink:title="resolvers.js">
<path fill="#ffffcc" stroke="black" d="M283,-89C283,-89 232,-89 232,-89 229,-89 226,-86 226,-83 226,-83 226,-77 226,-77 226,-74 229,-71 232,-71 232,-71 283,-71 283,-71 286,-71 289,-74 289,-77 289,-77 289,-83 289,-83 289,-86 286,-89 283,-89"/>
<text text-anchor="start" x="234" y="-77.8" font-family="Helvetica,sans-Serif" font-size="9.00">resolvers.js</text>
</a>
</g>
</g>
<!-- app/graphql/index.js&#45;&gt;app/graphql/resolvers.js -->
<g id="edge5" class="edge">
<title>app/graphql/index.js&#45;&gt;app/graphql/resolvers.js</title>
<path fill="none" stroke="#000000" stroke-width="2" stroke-opacity="0.200000" d="M206.94,-100.51C212.87,-98.05 219.36,-95.37 225.62,-92.78"/>
<polygon fill="#000000" fill-opacity="0.200000" stroke="#000000" stroke-width="2" stroke-opacity="0.200000" points="226.42,-94.72 231.16,-90.49 224.81,-90.84 226.42,-94.72"/>
</g>
<!-- app/graphql/typeDefs.js -->
<g id="node8" class="node">
<title>app/graphql/typeDefs.js</title>
<g id="a_node8"><a xlink:href="app/graphql/typeDefs.js" xlink:title="typeDefs.js">
<path fill="#ffffcc" stroke="black" d="M282.5,-119C282.5,-119 232.5,-119 232.5,-119 229.5,-119 226.5,-116 226.5,-113 226.5,-113 226.5,-107 226.5,-107 226.5,-104 229.5,-101 232.5,-101 232.5,-101 282.5,-101 282.5,-101 285.5,-101 288.5,-104 288.5,-107 288.5,-107 288.5,-113 288.5,-113 288.5,-116 285.5,-119 282.5,-119"/>
<text text-anchor="start" x="234.5" y="-107.8" font-family="Helvetica,sans-Serif" font-size="9.00">typeDefs.js</text>
</a>
</g>
</g>
<!-- app/graphql/index.js&#45;&gt;app/graphql/typeDefs.js -->
<g id="edge6" class="edge">
<title>app/graphql/index.js&#45;&gt;app/graphql/typeDefs.js</title>
<path fill="none" stroke="#000000" stroke-width="2" stroke-opacity="0.200000" d="M210.17,-110C212.53,-110 214.94,-110 217.37,-110"/>
<polygon fill="#000000" fill-opacity="0.200000" stroke="#000000" stroke-width="2" stroke-opacity="0.200000" points="217.15,-112.1 223.15,-110 217.15,-107.9 217.15,-112.1"/>
</g>
<!-- app/graphql/resolvers.js&#45;&gt;app/class/controller.js -->
<g id="edge7" class="edge">
<title>app/graphql/resolvers.js&#45;&gt;app/class/controller.js</title>
<path fill="none" stroke="#000000" stroke-width="2" stroke-opacity="0.200000" d="M283.97,-89.37C288.36,-91.14 292.84,-93.05 297,-95 304.81,-98.66 313.12,-103.07 320.54,-107.22"/>
<polygon fill="#000000" fill-opacity="0.200000" stroke="#000000" stroke-width="2" stroke-opacity="0.200000" points="319.29,-108.92 325.55,-110.06 321.37,-105.27 319.29,-108.92"/>
</g>
<!-- app/professor/controller.js -->
<g id="node9" class="node">
<title>app/professor/controller.js</title>
<g id="a_node9"><a xlink:href="app/professor/controller.js" xlink:title="controller.js">
<path fill="#ffffcc" stroke="black" d="M451,-70C451,-70 399,-70 399,-70 396,-70 393,-67 393,-64 393,-64 393,-58 393,-58 393,-55 396,-52 399,-52 399,-52 451,-52 451,-52 454,-52 457,-55 457,-58 457,-58 457,-64 457,-64 457,-67 454,-70 451,-70"/>
<text text-anchor="start" x="401" y="-58.8" font-family="Helvetica,sans-Serif" font-size="9.00">controller.js</text>
</a>
</g>
</g>
<!-- app/graphql/resolvers.js&#45;&gt;app/professor/controller.js -->
<g id="edge8" class="edge">
<title>app/graphql/resolvers.js&#45;&gt;app/professor/controller.js</title>
<path fill="none" stroke="#000000" stroke-width="2" stroke-opacity="0.200000" d="M289.24,-76.47C315.93,-73.41 354.75,-68.95 383.88,-65.61"/>
<polygon fill="#000000" fill-opacity="0.200000" stroke="#000000" stroke-width="2" stroke-opacity="0.200000" points="383.85,-67.72 389.57,-64.95 383.37,-63.55 383.85,-67.72"/>
</g>
<!-- app/school/controller.js -->
<g id="node10" class="node">
<title>app/school/controller.js</title>
<g id="a_node10"><a xlink:href="app/school/controller.js" xlink:title="controller.js">
<path fill="#ffffcc" stroke="black" d="M371,-286C371,-286 319,-286 319,-286 316,-286 313,-283 313,-280 313,-280 313,-274 313,-274 313,-271 316,-268 319,-268 319,-268 371,-268 371,-268 374,-268 377,-271 377,-274 377,-274 377,-280 377,-280 377,-283 374,-286 371,-286"/>
<text text-anchor="start" x="321" y="-274.8" font-family="Helvetica,sans-Serif" font-size="9.00">controller.js</text>
</a>
</g>
</g>
<!-- app/graphql/resolvers.js&#45;&gt;app/school/controller.js -->
<g id="edge9" class="edge">
<title>app/graphql/resolvers.js&#45;&gt;app/school/controller.js</title>
<path fill="none" stroke="#000000" stroke-width="2" stroke-opacity="0.200000" d="M289.46,-88.08C292.37,-89.93 294.99,-92.21 297,-95 317.82,-123.88 286.28,-224.72 305,-255 306.74,-257.81 308.97,-260.29 311.49,-262.48"/>
<polygon fill="#000000" fill-opacity="0.200000" stroke="#000000" stroke-width="2" stroke-opacity="0.200000" points="310.11,-264.08 316.22,-265.85 312.55,-260.66 310.11,-264.08"/>
</g>
<!-- app/professor/controller.js&#45;&gt;app/professor/index.js -->
<g id="edge12" class="edge">
<title>app/professor/controller.js&#45;&gt;app/professor/index.js</title>
<path fill="none" stroke="#000000" stroke-width="2" stroke-opacity="0.200000" d="M457.31,-61C458.46,-61 459.61,-61 460.77,-61"/>
<polygon fill="#000000" fill-opacity="0.200000" stroke="#000000" stroke-width="2" stroke-opacity="0.200000" points="460.5,-63.1 466.5,-61 460.5,-58.9 460.5,-63.1"/>
</g>
<!-- app/school/index.js -->
<g id="node14" class="node">
<title>app/school/index.js</title>
<g id="a_node14"><a xlink:href="app/school/index.js" xlink:title="index.js">
<path fill="#ffffcc" stroke="black" d="M446,-286C446,-286 404,-286 404,-286 401,-286 398,-283 398,-280 398,-280 398,-274 398,-274 398,-271 401,-268 404,-268 404,-268 446,-268 446,-268 449,-268 452,-271 452,-274 452,-274 452,-280 452,-280 452,-283 449,-286 446,-286"/>
<text text-anchor="start" x="409" y="-274.8" font-family="Helvetica,sans-Serif" font-size="9.00">index.js</text>
</a>
</g>
</g>
<!-- app/school/controller.js&#45;&gt;app/school/index.js -->
<g id="edge14" class="edge">
<title>app/school/controller.js&#45;&gt;app/school/index.js</title>
<path fill="none" stroke="#000000" stroke-width="2" stroke-opacity="0.200000" d="M377.28,-277C381.09,-277 385.01,-277 388.87,-277"/>
<polygon fill="#000000" fill-opacity="0.200000" stroke="#000000" stroke-width="2" stroke-opacity="0.200000" points="388.7,-279.1 394.7,-277 388.7,-274.9 388.7,-279.1"/>
</g>
<!-- app/graphql/typedefs.js -->
<g id="node11" class="node">
<title>app/graphql/typedefs.js</title>
<g id="a_node11"><a xlink:href="app/graphql/typedefs.js" xlink:title="typedefs.js">
<path fill="#ccffcc" stroke="black" d="M207,-89C207,-89 159,-89 159,-89 156,-89 153,-86 153,-83 153,-83 153,-77 153,-77 153,-74 156,-71 159,-71 159,-71 207,-71 207,-71 210,-71 213,-74 213,-77 213,-77 213,-83 213,-83 213,-86 210,-89 207,-89"/>
<text text-anchor="start" x="161" y="-77.8" font-family="Helvetica,sans-Serif" font-size="9.00">typedefs.js</text>
</a>
</g>
</g>
<!-- app/index.js -->
<g id="node12" class="node">
<title>app/index.js</title>
<g id="a_node12"><a xlink:href="app/index.js" xlink:title="index.js">
<path fill="#ffffcc" stroke="black" d="M64,-134C64,-134 22,-134 22,-134 19,-134 16,-131 16,-128 16,-128 16,-122 16,-122 16,-119 19,-116 22,-116 22,-116 64,-116 64,-116 67,-116 70,-119 70,-122 70,-122 70,-128 70,-128 70,-131 67,-134 64,-134"/>
<text text-anchor="start" x="27" y="-122.8" font-family="Helvetica,sans-Serif" font-size="9.00">index.js</text>
</a>
</g>
</g>
<!-- app/index.js&#45;&gt;app/conn.js -->
<g id="edge10" class="edge">
<title>app/index.js&#45;&gt;app/conn.js</title>
<path fill="none" stroke="#000000" stroke-width="2" stroke-opacity="0.200000" d="M61.3,-134.33C86.9,-147.25 136.74,-169 182,-169 182,-169 182,-169 258.5,-169 303.42,-169 355.19,-170.49 388.69,-171.65"/>
<polygon fill="#000000" fill-opacity="0.200000" stroke="#000000" stroke-width="2" stroke-opacity="0.200000" points="388.54,-173.75 394.61,-171.86 388.69,-169.55 388.54,-173.75"/>
</g>
<!-- app/server.js -->
<g id="node13" class="node">
<title>app/server.js</title>
<g id="a_node13"><a xlink:href="app/server.js" xlink:title="server.js">
<path fill="#ffffcc" stroke="black" d="M131,-91C131,-91 89,-91 89,-91 86,-91 83,-88 83,-85 83,-85 83,-79 83,-79 83,-76 86,-73 89,-73 89,-73 131,-73 131,-73 134,-73 137,-76 137,-79 137,-79 137,-85 137,-85 137,-88 134,-91 131,-91"/>
<text text-anchor="start" x="92.5" y="-79.8" font-family="Helvetica,sans-Serif" font-size="9.00">server.js</text>
</a>
</g>
</g>
<!-- app/index.js&#45;&gt;app/server.js -->
<g id="edge11" class="edge">
<title>app/index.js&#45;&gt;app/server.js</title>
<path fill="none" stroke="#000000" stroke-width="2" stroke-opacity="0.200000" d="M58.1,-115.67C66.71,-109.98 77.87,-102.59 87.56,-96.19"/>
<polygon fill="#000000" fill-opacity="0.200000" stroke="#000000" stroke-width="2" stroke-opacity="0.200000" points="88.55,-98.04 92.4,-92.98 86.24,-94.54 88.55,-98.04"/>
</g>
<!-- app/server.js&#45;&gt;app/config.js -->
<g id="edge21" class="edge">
<title>app/server.js&#45;&gt;app/config.js</title>
<path fill="none" stroke="#000000" stroke-width="2" stroke-opacity="0.200000" d="M123.32,-72.51C129.53,-68.14 137.35,-63.21 145,-60 191.83,-40.34 205.71,-35 256.5,-35 256.5,-35 256.5,-35 426,-35 473.19,-35 493.4,-13.86 532,-41 552.19,-55.19 560.46,-83.89 563.8,-102.77"/>
<polygon fill="#000000" fill-opacity="0.200000" stroke="#000000" stroke-width="2" stroke-opacity="0.200000" points="561.71,-103.01 564.68,-108.63 565.86,-102.39 561.71,-103.01"/>
</g>
<!-- app/server.js&#45;&gt;app/graphql/index.js -->
<g id="edge22" class="edge">
<title>app/server.js&#45;&gt;app/graphql/index.js</title>
<path fill="none" stroke="#000000" stroke-width="2" stroke-opacity="0.200000" d="M135.04,-91.48C139.78,-93.35 144.83,-95.34 149.79,-97.3"/>
<polygon fill="#000000" fill-opacity="0.200000" stroke="#000000" stroke-width="2" stroke-opacity="0.200000" points="148.82,-99.17 155.17,-99.42 150.36,-95.26 148.82,-99.17"/>
</g>
<!-- http -->
<g id="node17" class="node">
<title>http</title>
<g id="a_node17"><a xlink:title="http">
<path fill="#ffffcc" stroke="grey" d="M204,-18C204,-18 162,-18 162,-18 159,-18 156,-15 156,-12 156,-12 156,-6 156,-6 156,-3 159,0 162,0 162,0 204,0 204,0 207,0 210,-3 210,-6 210,-6 210,-12 210,-12 210,-15 207,-18 204,-18"/>
<text text-anchor="middle" x="183" y="-6.8" font-family="Helvetica,sans-Serif" font-size="9.00" fill="grey">http</text>
</a>
</g>
</g>
<!-- app/server.js&#45;&gt;http -->
<g id="edge23" class="edge">
<title>app/server.js&#45;&gt;http</title>
<path fill="none" stroke="#000000" stroke-dasharray="5,2" stroke-opacity="0.200000" d="M114.08,-72.7C118.79,-59.83 128.97,-36.63 145,-23 146.37,-21.83 147.85,-20.76 149.41,-19.77"/>
<polygon fill="#000000" fill-opacity="0.200000" stroke="#000000" stroke-opacity="0.200000" points="150.07,-21.8 154.34,-17.08 148.06,-18.11 150.07,-21.8"/>
</g>
<!-- app/school/index.js&#45;&gt;app/config.js -->
<g id="edge15" class="edge">
<title>app/school/index.js&#45;&gt;app/config.js</title>
<path fill="none" stroke="#000000" stroke-width="2" stroke-opacity="0.200000" d="M443.04,-267.5C448.72,-263.95 454.9,-259.64 460,-255 500.57,-218.11 537.83,-164.62 555.4,-137.74"/>
<polygon fill="#000000" fill-opacity="0.200000" stroke="#000000" stroke-width="2" stroke-opacity="0.200000" points="557.07,-139.02 558.56,-132.84 553.54,-136.75 557.07,-139.02"/>
</g>
<!-- app/seeds/data.json -->
<g id="node15" class="node">
<title>app/seeds/data.json</title>
<g id="a_node15"><a xlink:href="app/seeds/data.json" xlink:title="data.json">
<path fill="#ffee44" stroke="black" d="M446,-226C446,-226 404,-226 404,-226 401,-226 398,-223 398,-220 398,-220 398,-214 398,-214 398,-211 401,-208 404,-208 404,-208 446,-208 446,-208 449,-208 452,-211 452,-214 452,-214 452,-220 452,-220 452,-223 449,-226 446,-226"/>
<text text-anchor="start" x="406" y="-214.8" font-family="Helvetica,sans-Serif" font-size="9.00">data.json</text>
</a>
</g>
</g>
<!-- app/seeds/seed.js -->
<g id="node16" class="node">
<title>app/seeds/seed.js</title>
<g id="a_node16"><a xlink:href="app/seeds/seed.js" xlink:title="seed.js">
<path fill="#ffffcc" stroke="black" d="M366,-226C366,-226 324,-226 324,-226 321,-226 318,-223 318,-220 318,-220 318,-214 318,-214 318,-211 321,-208 324,-208 324,-208 366,-208 366,-208 369,-208 372,-211 372,-214 372,-214 372,-220 372,-220 372,-223 369,-226 366,-226"/>
<text text-anchor="start" x="330" y="-214.8" font-family="Helvetica,sans-Serif" font-size="9.00">seed.js</text>
</a>
</g>
</g>
<!-- app/seeds/seed.js&#45;&gt;app/class/index.js -->
<g id="edge16" class="edge">
<title>app/seeds/seed.js&#45;&gt;app/class/index.js</title>
<path fill="none" stroke="#000000" stroke-width="2" stroke-opacity="0.200000" d="M351.58,-207.81C358.25,-196.59 369.44,-176.88 377,-159 381.55,-148.26 376.8,-142.3 385,-134 386.43,-132.56 388.02,-131.27 389.72,-130.13"/>
<polygon fill="#000000" fill-opacity="0.200000" stroke="#000000" stroke-width="2" stroke-opacity="0.200000" points="390.67,-132.01 395.03,-127.38 388.73,-128.28 390.67,-132.01"/>
</g>
<!-- app/seeds/seed.js&#45;&gt;app/professor/index.js -->
<g id="edge18" class="edge">
<title>app/seeds/seed.js&#45;&gt;app/professor/index.js</title>
<path fill="none" stroke="#000000" stroke-width="2" stroke-opacity="0.200000" d="M368.01,-207.62C373.49,-205.54 379.4,-203.51 385,-202 401.3,-197.61 448.51,-202.36 460,-190 476.04,-172.75 459.12,-108.54 469.33,-78.27"/>
<polygon fill="#000000" fill-opacity="0.200000" stroke="#000000" stroke-width="2" stroke-opacity="0.200000" points="471.11,-79.4 471.87,-73.09 467.34,-77.55 471.11,-79.4"/>
</g>
<!-- app/seeds/seed.js&#45;&gt;app/conn.js -->
<g id="edge17" class="edge">
<title>app/seeds/seed.js&#45;&gt;app/conn.js</title>
<path fill="none" stroke="#000000" stroke-width="2" stroke-opacity="0.200000" d="M372.1,-207.54C373.84,-206.47 375.49,-205.29 377,-204 382.15,-199.59 379.93,-195.5 385,-191 386.66,-189.53 388.46,-188.15 390.35,-186.88"/>
<polygon fill="#000000" fill-opacity="0.200000" stroke="#000000" stroke-width="2" stroke-opacity="0.200000" points="391.21,-188.8 395.32,-183.95 389.08,-185.18 391.21,-188.8"/>
</g>
<!-- app/seeds/seed.js&#45;&gt;app/school/index.js -->
<g id="edge19" class="edge">
<title>app/seeds/seed.js&#45;&gt;app/school/index.js</title>
<path fill="none" stroke="#000000" stroke-width="2" stroke-opacity="0.200000" d="M354.39,-226.45C361.91,-234.6 373.5,-246.38 385,-255 388.89,-257.91 393.2,-260.72 397.5,-263.29"/>
<polygon fill="#000000" fill-opacity="0.200000" stroke="#000000" stroke-width="2" stroke-opacity="0.200000" points="396.25,-264.99 402.51,-266.14 398.33,-261.34 396.25,-264.99"/>
</g>
<!-- app/seeds/seed.js&#45;&gt;app/seeds/data.json -->
<g id="edge20" class="edge">
<title>app/seeds/seed.js&#45;&gt;app/seeds/data.json</title>
<path fill="none" stroke="#000000" stroke-width="2" stroke-opacity="0.200000" d="M372.41,-217C377.62,-217 383.16,-217 388.61,-217"/>
<polygon fill="#000000" fill-opacity="0.200000" stroke="#000000" stroke-width="2" stroke-opacity="0.200000" points="388.59,-219.1 394.59,-217 388.59,-214.9 388.59,-219.1"/>
</g>
</g>
</svg>
